<svg width="179" height="64" fill="none" xmlns="http://www.w3.org/2000/svg"><rect width="179" height="64" rx="32" fill="#6A6A6A"/><path d="M41.221 30.614a7.843 7.843 0 0 1 1.056-3.824 8.02 8.02 0 0 1 2.802-2.85 8.245 8.245 0 0 0-2.85-2.492 8.41 8.41 0 0 0-3.683-.976c-2.749-.283-5.414 1.615-6.814 1.615-1.428 0-3.585-1.587-5.907-1.54a8.818 8.818 0 0 0-4.25 1.245 8.614 8.614 0 0 0-3.072 3.14c-3.165 5.382-.804 13.291 2.228 17.641 1.518 2.13 3.29 4.51 5.611 4.426 2.27-.093 3.119-1.422 5.86-1.422 2.714 0 3.51 1.422 5.877 1.368 2.437-.039 3.971-2.14 5.435-4.29A17.492 17.492 0 0 0 46 37.685a7.797 7.797 0 0 1-3.473-2.83 7.588 7.588 0 0 1-1.306-4.241ZM36.75 17.61A7.738 7.738 0 0 0 38.574 12a8.164 8.164 0 0 0-5.25 2.668 7.42 7.42 0 0 0-1.484 2.518 7.327 7.327 0 0 0-.388 2.884 6.812 6.812 0 0 0 2.937-.632 6.693 6.693 0 0 0 2.36-1.828Zm30.846 24.56h-5.68l-1.364 4.062h-2.405l5.38-15.03h2.499l5.38 15.03h-2.447l-1.363-4.062Zm-5.092-1.875h4.503l-2.22-6.594h-.062l-2.22 6.594Zm20.521.458c0 3.406-1.807 5.594-4.534 5.594a3.658 3.658 0 0 1-1.982-.464 3.7 3.7 0 0 1-1.436-1.454h-.052v5.428h-2.23V35.273h2.159v1.823h.04a3.87 3.87 0 0 1 1.465-1.451 3.827 3.827 0 0 1 1.995-.487c2.757 0 4.575 2.199 4.575 5.595Zm-2.292 0c0-2.219-1.137-3.677-2.871-3.677-1.704 0-2.85 1.489-2.85 3.677 0 2.208 1.146 3.687 2.85 3.687 1.734 0 2.87-1.448 2.87-3.687Zm14.249 0c0 3.406-1.807 5.594-4.534 5.594a3.658 3.658 0 0 1-1.982-.464 3.699 3.699 0 0 1-1.436-1.454h-.052v5.428h-2.23V35.273h2.159v1.823h.04a3.87 3.87 0 0 1 1.465-1.451 3.827 3.827 0 0 1 1.995-.487c2.757 0 4.575 2.199 4.575 5.595Zm-2.292 0c0-2.219-1.137-3.677-2.871-3.677-1.704 0-2.85 1.489-2.85 3.677 0 2.208 1.146 3.687 2.85 3.687 1.734 0 2.87-1.448 2.87-3.687Zm10.195 1.292c.166 1.49 1.601 2.47 3.563 2.47 1.879 0 3.232-.98 3.232-2.324 0-1.166-.816-1.865-2.747-2.344l-1.931-.469c-2.737-.666-4.007-1.957-4.007-4.052 0-2.593 2.241-4.375 5.422-4.375 3.149 0 5.307 1.782 5.38 4.375h-2.251c-.135-1.5-1.364-2.406-3.16-2.406-1.797 0-3.026.917-3.026 2.25 0 1.063.785 1.688 2.706 2.167l1.641.406c3.058.73 4.328 1.968 4.328 4.167 0 2.812-2.221 4.574-5.753 4.574-3.304 0-5.535-1.72-5.679-4.44l2.282.001Zm13.963-9.362v2.593h2.065v1.781h-2.065V43.1c0 .939.413 1.376 1.321 1.376.246-.004.49-.022.734-.052v1.77a6.066 6.066 0 0 1-1.239.105c-2.199 0-3.057-.834-3.057-2.96v-6.28h-1.58v-1.782h1.58v-2.593h2.241Zm3.262 8.071c0-3.449 2.014-5.615 5.153-5.615 3.15 0 5.154 2.166 5.154 5.614 0 3.458-1.994 5.615-5.154 5.615-3.159 0-5.153-2.157-5.153-5.614Zm8.034 0c0-2.366-1.074-3.762-2.881-3.762-1.807 0-2.88 1.407-2.88 3.762 0 2.374 1.073 3.76 2.88 3.76s2.881-1.386 2.881-3.76Zm4.111-5.481h2.127v1.865h.051a2.617 2.617 0 0 1 .959-1.458 2.573 2.573 0 0 1 1.655-.522c.257 0 .513.027.764.084v2.104a3.097 3.097 0 0 0-1.002-.136 2.233 2.233 0 0 0-1.737.722 2.286 2.286 0 0 0-.587 1.8v6.5h-2.23v-10.96Zm15.838 7.741c-.3 1.989-2.221 3.354-4.678 3.354-3.16 0-5.122-2.136-5.122-5.563 0-3.437 1.972-5.666 5.028-5.666 3.006 0 4.896 2.082 4.896 5.405v.771h-7.673v.136c-.035.403.015.81.147 1.192a2.848 2.848 0 0 0 1.603 1.703c.372.153.772.224 1.173.209a2.443 2.443 0 0 0 1.508-.351 2.474 2.474 0 0 0 1.001-1.19h2.117Zm-7.538-3.271h5.431a2.65 2.65 0 0 0-.73-1.978 2.609 2.609 0 0 0-1.935-.804 2.729 2.729 0 0 0-1.958.81 2.783 2.783 0 0 0-.808 1.972ZM60.451 26.438c.152.039.313.068.48.087.172.02.358.03.557.03.617 0 1.14-.153 1.57-.457.43-.301.784-.74 1.061-1.319l3.381-7.043h-1.47l-1.823 3.938c-.07.152-.137.308-.2.469a5.09 5.09 0 0 0-.163.498h-.03a4.155 4.155 0 0 0-.17-.498 7.23 7.23 0 0 0-.204-.475l-1.84-3.932h-1.57l3.04 6.211.094.006c-.281.652-.549 1.055-.803 1.207-.254.156-.58.235-.978.235a4.716 4.716 0 0 1-.92-.105l-.012 1.148Zm7.809-5.479c0 .969.346 1.748 1.037 2.338.695.586 1.635.879 2.818.879 1.114 0 1.963-.229 2.55-.686.585-.46.878-.984.878-1.57v-.053h-1.5v.059c-.008.328-.16.596-.457.803-.293.203-.785.304-1.477.304-.796 0-1.384-.185-1.763-.556-.38-.372-.569-.86-.569-1.465v-.287c0-.606.19-1.094.569-1.465.379-.371.966-.557 1.763-.557.692 0 1.184.104 1.477.31.297.208.45.471.457.792v.064h1.5v-.07c-.02-.586-.318-1.106-.897-1.559-.574-.453-1.415-.68-2.525-.68-1.187 0-2.129.296-2.824.885-.691.586-1.037 1.362-1.037 2.326v.188Zm7.996-2.086h2.678V24h1.488v-5.127H83.1v-1.137h-6.844v1.137Zm7.79 3.287c0 .633.249 1.117.745 1.453.5.336 1.168.504 2.004.504.73 0 1.338-.094 1.822-.281.485-.188.817-.41.996-.668.016.148.051.3.106.457.054.156.113.281.175.375h1.442v-.094a2.384 2.384 0 0 1-.217-.586 3.265 3.265 0 0 1-.076-.715v-2.923c0-.696-.281-1.223-.844-1.582-.558-.36-1.347-.54-2.367-.54-1.039 0-1.857.169-2.455.505-.594.331-.89.802-.89 1.412v.046h1.47v-.052c0-.258.149-.463.445-.616.301-.152.758-.228 1.371-.228.633 0 1.09.086 1.371.258.282.172.422.437.422.797v.427h-2.004c-1.101 0-1.962.176-2.584.528-.62.351-.931.86-.931 1.523Zm1.477-.1c0-.331.192-.587.575-.767.386-.18.947-.27 1.681-.27h1.793v.739c0 .332-.228.63-.685.896-.457.266-.99.399-1.6.399-.613 0-1.06-.082-1.342-.246a.815.815 0 0 1-.422-.75Zm7.569-4.324V24h1.482v-2.625h3.785V24h1.489v-6.264h-1.489v2.502h-3.785v-2.502h-1.482Zm8.429 3.223c0 .965.36 1.742 1.079 2.332.718.59 1.668.885 2.847.885 1.18 0 2.129-.295 2.848-.885.719-.59 1.078-1.367 1.078-2.332v-.188c0-.964-.359-1.74-1.078-2.326-.719-.59-1.668-.884-2.848-.884-1.179 0-2.129.294-2.847.884-.719.586-1.079 1.362-1.079 2.326v.188Zm1.518-.234c0-.598.205-1.08.615-1.448.41-.37 1.008-.556 1.793-.556.782 0 1.377.185 1.787.556.411.367.616.85.616 1.448v.28c0 .602-.205 1.089-.616 1.46-.406.367-1.002.55-1.787.55-.785 0-1.383-.183-1.793-.55-.41-.371-.615-.856-.615-1.453v-.287ZM111.041 24h4.371c.766 0 1.352-.156 1.758-.469.406-.312.609-.75.609-1.312 0-.399-.125-.719-.375-.961-.246-.246-.57-.406-.972-.48v-.018c.359-.102.636-.268.832-.498.199-.235.298-.534.298-.897 0-.539-.193-.945-.58-1.218-.386-.274-.978-.41-1.775-.41h-4.166V24Zm1.471-3.686v-1.54h2.549c.355 0 .609.062.761.187.157.125.235.309.235.55 0 .255-.078.452-.235.593-.152.14-.406.21-.761.21h-2.549Zm0 2.649v-1.647h2.724c.364 0 .629.073.797.217.168.145.252.344.252.598 0 .258-.084.46-.252.61-.168.148-.433.222-.797.222h-2.724ZM119.447 24h1.483l3.422-3.984c.097-.118.177-.23.24-.34.062-.11.119-.223.17-.34h.029c-.004.121-.01.254-.018.398-.003.145-.005.278-.005.399V24h1.488v-6.264h-1.483l-3.421 3.973c-.098.117-.178.23-.241.34a7.8 7.8 0 0 0-.17.34h-.035c.004-.121.01-.254.018-.399a7.57 7.57 0 0 0 .012-.404v-3.85h-1.489V24Zm8.137-5.127h2.678V24h1.488v-5.127h2.678v-1.137h-6.844v1.137Zm9.654-1.137h-1.482V24h3.978c.805 0 1.42-.188 1.846-.563.43-.375.645-.892.645-1.552 0-.684-.215-1.207-.645-1.57-.426-.368-1.041-.551-1.846-.551h-2.496v-2.028Zm2.309 3.112c.43 0 .734.091.914.275.18.18.269.43.269.75 0 .332-.089.59-.269.773-.18.184-.484.276-.914.276h-2.309v-2.074h2.309Z" fill="#fff"/></svg>