<svg width="200" height="64" fill="none" xmlns="http://www.w3.org/2000/svg"><rect width="200" height="64" rx="32" fill="#6A6A6A"/><path d="M22.602 16.495c-.378.383-.602.978-.602 1.748v27.514c0 .771.224 1.365.602 1.748l.096.09 16.095-15.413v-.364L22.698 16.404l-.096.091Z" fill="url(#a)"/><path d="m44.159 37.321-5.365-5.139v-.363l5.366-5.138.12.066 6.358 3.458c1.816.988 1.816 2.604 0 3.593l-6.357 3.459-.122.064Z" fill="url(#b)"/><path d="M44.281 37.255 38.795 32 22.601 47.505c.599.607 1.586.682 2.7.076L44.28 37.255Z" fill="url(#c)"/><path d="M44.281 26.744 25.303 16.418c-1.114-.606-2.101-.53-2.7.076L38.795 32l5.486-5.255Z" fill="url(#d)"/><path opacity=".2" d="m44.16 37.139-18.857 10.26c-1.055.573-1.999.536-2.604.013l-.097.093.096.09c.605.523 1.548.561 2.603-.014L44.28 37.256l-.12-.117Z" fill="#000"/><path opacity=".12" d="M22.602 47.324c-.378-.383-.602-.978-.602-1.748v.182c0 .77.224 1.365.602 1.748l.097-.094-.098-.088Zm28.036-13.71-6.478 3.524.121.116 6.357-3.459c.908-.494 1.361-1.144 1.361-1.795-.076.588-.539 1.166-1.361 1.614Z" fill="#000"/><path opacity=".25" d="m25.301 16.6 25.335 13.785c.824.448 1.285 1.025 1.362 1.615 0-.651-.453-1.303-1.361-1.797L25.3 16.42c-1.815-.99-3.3-.17-3.3 1.823v.183c0-1.992 1.486-2.813 3.301-1.825Z" fill="#fff"/><path d="M68.451 26.438c.153.039.313.068.48.087.172.02.358.03.557.03.618 0 1.14-.153 1.57-.457.43-.301.784-.74 1.061-1.319l3.381-7.043h-1.47l-1.823 3.938c-.07.152-.137.308-.2.469a5.09 5.09 0 0 0-.163.498h-.03a4.155 4.155 0 0 0-.17-.498 7.23 7.23 0 0 0-.205-.475l-1.84-3.932h-1.57l3.041 6.211.094.006c-.281.652-.549 1.055-.803 1.207-.254.156-.58.235-.978.235a4.716 4.716 0 0 1-.92-.105l-.012 1.148Zm7.809-5.479c0 .969.346 1.748 1.037 2.338.695.586 1.635.879 2.818.879 1.114 0 1.963-.229 2.55-.686.585-.46.878-.984.878-1.57v-.053h-1.5v.059c-.008.328-.16.596-.457.803-.293.203-.785.304-1.477.304-.796 0-1.384-.185-1.763-.556-.38-.372-.569-.86-.569-1.465v-.287c0-.606.19-1.094.569-1.465.379-.371.966-.557 1.763-.557.692 0 1.184.104 1.477.31.297.208.45.471.457.792v.064h1.5v-.07c-.02-.586-.318-1.106-.897-1.559-.574-.453-1.415-.68-2.525-.68-1.187 0-2.129.296-2.824.885-.691.586-1.037 1.362-1.037 2.326v.188Zm7.996-2.086h2.678V24h1.488v-5.127H91.1v-1.137h-6.844v1.137Zm7.79 3.287c0 .633.249 1.117.745 1.453.5.336 1.168.504 2.004.504.73 0 1.338-.094 1.822-.281.485-.188.817-.41.996-.668.016.148.051.3.106.457.054.156.113.281.175.375h1.442v-.094a2.384 2.384 0 0 1-.217-.586 3.265 3.265 0 0 1-.076-.715v-2.923c0-.696-.281-1.223-.844-1.582-.558-.36-1.347-.54-2.367-.54-1.039 0-1.857.169-2.455.505-.594.331-.89.802-.89 1.412v.046h1.47v-.052c0-.258.149-.463.445-.616.301-.152.758-.228 1.371-.228.633 0 1.09.086 1.371.258.282.172.422.437.422.797v.427h-2.004c-1.101 0-1.962.176-2.584.528-.62.351-.931.86-.931 1.523Zm1.477-.1c0-.331.192-.587.575-.767.386-.18.947-.27 1.681-.27h1.793v.739c0 .332-.228.63-.685.896-.457.266-.99.399-1.6.399-.613 0-1.06-.082-1.342-.246a.815.815 0 0 1-.422-.75Zm7.569-4.324V24h1.482v-2.625h3.785V24h1.489v-6.264h-1.489v2.502h-3.785v-2.502h-1.482Zm8.429 3.223c0 .965.36 1.742 1.079 2.332.718.59 1.668.885 2.847.885 1.18 0 2.129-.295 2.848-.885.719-.59 1.078-1.367 1.078-2.332v-.188c0-.964-.359-1.74-1.078-2.326-.719-.59-1.668-.884-2.848-.884-1.179 0-2.129.294-2.847.884-.719.586-1.079 1.362-1.079 2.326v.188Zm1.518-.234c0-.598.205-1.08.615-1.448.41-.37 1.008-.556 1.793-.556.782 0 1.377.185 1.787.556.411.367.616.85.616 1.448v.28c0 .602-.205 1.089-.616 1.46-.406.367-1.002.55-1.787.55-.785 0-1.383-.183-1.793-.55-.41-.371-.615-.856-.615-1.453v-.287ZM119.041 24h4.371c.766 0 1.352-.156 1.758-.469.406-.312.609-.75.609-1.312 0-.399-.125-.719-.375-.961-.246-.246-.57-.406-.972-.48v-.018c.359-.102.636-.268.832-.498.199-.235.298-.534.298-.897 0-.539-.193-.945-.58-1.218-.386-.274-.978-.41-1.775-.41h-4.166V24Zm1.471-3.686v-1.54h2.549c.355 0 .609.062.761.187.157.125.235.309.235.55 0 .255-.078.452-.235.593-.152.14-.406.21-.761.21h-2.549Zm0 2.649v-1.647h2.724c.364 0 .629.073.797.217.168.145.252.344.252.598 0 .258-.084.46-.252.61-.168.148-.433.222-.797.222h-2.724ZM127.447 24h1.483l3.422-3.984c.097-.118.177-.23.24-.34.062-.11.119-.223.17-.34h.029c-.004.121-.01.254-.018.398-.003.145-.005.278-.005.399V24h1.488v-6.264h-1.483l-3.421 3.973c-.098.117-.178.23-.241.34a7.8 7.8 0 0 0-.17.34h-.035c.004-.121.01-.254.018-.399a7.57 7.57 0 0 0 .012-.404v-3.85h-1.489V24Zm8.137-5.127h2.678V24h1.488v-5.127h2.678v-1.137h-6.844v1.137Zm9.654-1.137h-1.482V24h3.978c.805 0 1.42-.188 1.846-.563.43-.375.645-.892.645-1.552 0-.684-.215-1.207-.645-1.57-.426-.368-1.041-.551-1.846-.551h-2.496v-2.028Zm2.309 3.112c.43 0 .734.091.914.275.18.18.269.43.269.75 0 .332-.089.59-.269.773-.18.184-.484.276-.914.276h-2.309v-2.074h2.309ZM101.8 35.87c-2.934 0-5.325 2.23-5.325 5.305 0 3.056 2.391 5.306 5.325 5.306 2.935 0 5.326-2.25 5.326-5.306 0-3.075-2.391-5.305-5.326-5.305Zm0 8.522c-1.608 0-2.995-1.327-2.995-3.217 0-1.91 1.387-3.216 2.995-3.216 1.609 0 2.995 1.306 2.995 3.216 0 1.89-1.386 3.217-2.995 3.217ZM90.181 35.87c-2.934 0-5.326 2.23-5.326 5.305 0 3.056 2.392 5.306 5.326 5.306 2.934 0 5.326-2.25 5.326-5.306 0-3.075-2.392-5.305-5.326-5.305Zm0 8.522c-1.608 0-2.994-1.327-2.994-3.217 0-1.91 1.387-3.216 2.994-3.216 1.608 0 2.994 1.306 2.994 3.216.001 1.89-1.386 3.217-2.994 3.217Zm-13.82-6.894v2.25h5.387c-.161 1.266-.583 2.19-1.227 2.835-.783.783-2.01 1.648-4.16 1.648-3.316 0-5.908-2.674-5.908-5.99 0-3.316 2.592-5.99 5.908-5.99 1.789 0 3.095.704 4.06 1.609l1.587-1.588C80.662 30.985 78.873 30 76.361 30 71.819 30 68 33.698 68 38.24s3.819 8.24 8.36 8.24c2.452 0 4.302-.804 5.75-2.312 1.487-1.487 1.95-3.578 1.95-5.266 0-.522-.04-1.005-.122-1.407h-7.577v.003Zm56.523 1.747c-.442-1.186-1.789-3.377-4.542-3.377-2.734 0-5.004 2.151-5.004 5.306 0 2.974 2.25 5.306 5.266 5.306 2.431 0 3.838-1.487 4.421-2.352l-1.809-1.206c-.603.884-1.427 1.467-2.612 1.467-1.187 0-2.03-.543-2.573-1.608l7.095-2.934-.242-.602Zm-7.236 1.77c-.06-2.05 1.588-3.096 2.773-3.096.925 0 1.708.462 1.97 1.126l-4.743 1.97Zm-5.768 5.144h2.331V30.564h-2.331v15.595Zm-3.819-9.104h-.08c-.523-.623-1.527-1.187-2.793-1.187-2.654 0-5.085 2.332-5.085 5.326 0 2.974 2.431 5.286 5.085 5.286 1.266 0 2.27-.563 2.793-1.206h.08v.763c0 2.03-1.085 3.115-2.834 3.115-1.428 0-2.312-1.026-2.674-1.889l-2.03.845c.583 1.407 2.131 3.135 4.704 3.135 2.733 0 5.045-1.608 5.045-5.527V36.19h-2.211v.865Zm-2.672 7.337c-1.608 0-2.954-1.347-2.954-3.197 0-1.868 1.346-3.236 2.954-3.236 1.588 0 2.833 1.366 2.833 3.236 0 1.85-1.245 3.197-2.833 3.197Zm30.416-13.828h-5.578v15.595h2.327v-5.908h3.249c2.58 0 5.116-1.868 5.116-4.843 0-2.975-2.535-4.844-5.114-4.844Zm.059 7.516h-3.31v-5.345h3.31c1.741 0 2.729 1.44 2.729 2.673 0 1.208-.988 2.672-2.729 2.672Zm14.387-2.24c-1.685 0-3.431.743-4.153 2.389l2.067.863c.442-.863 1.264-1.144 2.127-1.144 1.204 0 2.428.722 2.448 2.006v.16c-.422-.24-1.325-.602-2.428-.602-2.227 0-4.495 1.224-4.495 3.512 0 2.087 1.827 3.43 3.873 3.43 1.565 0 2.427-.702 2.969-1.524h.08v1.204h2.246v-5.98c0-2.769-2.066-4.313-4.734-4.313Zm-.282 8.548c-.762 0-1.826-.382-1.826-1.324 0-1.204 1.325-1.665 2.467-1.665 1.023 0 1.505.22 2.127.521a2.819 2.819 0 0 1-2.768 2.468Zm13.203-8.206-2.669 6.761h-.08l-2.768-6.761h-2.508l4.153 9.45-2.367 5.257h2.427l6.401-14.708h-2.589Zm-20.968 9.977h2.328V30.564h-2.328v15.595Z" fill="#fff"/><defs><linearGradient id="a" x1="37.366" y1="17.953" x2="16.507" y2="39.736" gradientUnits="userSpaceOnUse"><stop stop-color="#00A0FF"/><stop offset=".007" stop-color="#00A1FF"/><stop offset=".26" stop-color="#00BEFF"/><stop offset=".512" stop-color="#00D2FF"/><stop offset=".76" stop-color="#00DFFF"/><stop offset="1" stop-color="#00E3FF"/></linearGradient><linearGradient id="b" x1="53.001" y1="32" x2="21.565" y2="32" gradientUnits="userSpaceOnUse"><stop stop-color="#FFE000"/><stop offset=".409" stop-color="#FFBD00"/><stop offset=".775" stop-color="orange"/><stop offset="1" stop-color="#FF9C00"/></linearGradient><linearGradient id="c" x1="41.299" y1="34.855" x2="13.013" y2="64.395" gradientUnits="userSpaceOnUse"><stop stop-color="#FF3A44"/><stop offset="1" stop-color="#C31162"/></linearGradient><linearGradient id="d" x1="18.525" y1="7.336" x2="31.156" y2="20.526" gradientUnits="userSpaceOnUse"><stop stop-color="#32A071"/><stop offset=".069" stop-color="#2DA771"/><stop offset=".476" stop-color="#15CF74"/><stop offset=".801" stop-color="#06E775"/><stop offset="1" stop-color="#00F076"/></linearGradient></defs></svg>